<svg xmlns="http://www.w3.org/2000/svg" viewBox="0 0 100 100">
  <defs>
    <linearGradient id="grad" x1="0%" y1="0%" x2="100%" y2="100%">
      <stop offset="0%" style="stop-color:#667eea;stop-opacity:1" />
      <stop offset="100%" style="stop-color:#764ba2;stop-opacity:1" />
    </linearGradient>
  </defs>
  
  <!-- Fondo con gradiente -->
  <rect width="100" height="100" rx="20" fill="url(#grad)"/>
  
  <!-- Calendario -->
  <rect x="20" y="25" width="60" height="50" rx="5" fill="white" opacity="0.95"/>
  
  <!-- Header del calendario -->
  <rect x="20" y="25" width="60" height="12" rx="5" fill="white"/>
  
  <!-- Días del calendario -->
  <rect x="25" y="42" width="8" height="8" rx="2" fill="#667eea"/>
  <rect x="37" y="42" width="8" height="8" rx="2" fill="#667eea"/>
  <rect x="49" y="42" width="8" height="8" rx="2" fill="#667eea"/>
  <rect x="61" y="42" width="8" height="8" rx="2" fill="#667eea"/>
  
  <rect x="25" y="54" width="8" height="8" rx="2" fill="#667eea"/>
  <rect x="37" y="54" width="8" height="8" rx="2" fill="#764ba2"/>
  <rect x="49" y="54" width="8" height="8" rx="2" fill="#667eea"/>
  <rect x="61" y="54" width="8" height="8" rx="2" fill="#667eea"/>
  
  <rect x="25" y="64" width="8" height="8" rx="2" fill="#667eea"/>
  <rect x="37" y="64" width="8" height="8" rx="2" fill="#667eea"/>
  
  <!-- Estrella AI (sparkle) -->
  <circle cx="72" cy="70" r="12" fill="#FFD700"/>
  <path d="M72 62 L73.5 67 L78.5 68.5 L73.5 70 L72 75 L70.5 70 L65.5 68.5 L70.5 67 Z" fill="white"/>
</svg>
